<svg width="25" height="22" viewBox="0 0 25 22" fill="none" xmlns="http://www.w3.org/2000/svg">
<path d="M0.839844 10.4023C0.839844 10.8027 1.15234 11.1836 1.67969 11.1836C1.95312 11.1836 2.17773 11.0371 2.38281 10.8711L12.1582 2.66797C12.373 2.47266 12.6367 2.47266 12.8516 2.66797L22.627 10.8711C22.8223 11.0371 23.0469 11.1836 23.3203 11.1836C23.7793 11.1836 24.1504 10.9004 24.1504 10.4316C24.1504 10.1387 24.0527 9.94336 23.8477 9.76758L21.1133 7.46289V3.55664C21.1133 3.12695 20.8398 2.85352 20.4102 2.85352H19.3652C18.9453 2.85352 18.6621 3.12695 18.6621 3.55664V5.40234L13.6816 1.22266C12.959 0.607422 12.0605 0.607422 11.3281 1.22266L1.15234 9.76758C0.9375 9.94336 0.839844 10.1777 0.839844 10.4023ZM3.88672 19.123C3.88672 20.4707 4.70703 21.2715 6.08398 21.2715H18.9258C20.3027 21.2715 21.1133 20.4707 21.1133 19.123V11.3789L13.0859 4.65039C12.7148 4.33789 12.2754 4.34766 11.9141 4.65039L3.88672 11.3789V19.123ZM15.0195 19.6992H9.98047V13.2441C9.98047 12.7949 10.2832 12.502 10.7324 12.502H14.2773C14.7266 12.502 15.0195 12.7949 15.0195 13.2441V19.6992Z" fill="#1D1F21"/>
</svg>
