<svg width="25" height="22" viewBox="0 0 25 22" fill="none" xmlns="http://www.w3.org/2000/svg">
<path d="M0.839844 10.4023C0.839844 10.8027 1.15234 11.1836 1.67969 11.1836C1.95312 11.1836 2.17773 11.0371 2.38281 10.8711L3.65234 9.79688V19.1133C3.65234 20.4805 4.46289 21.2715 5.85938 21.2715H19.0723C20.459 21.2715 21.2695 20.4805 21.2695 19.1133V9.72852L22.627 10.8711C22.8223 11.0371 23.0469 11.1836 23.3203 11.1836C23.7793 11.1836 24.1504 10.9004 24.1504 10.4316C24.1504 10.1387 24.0527 9.94336 23.8477 9.76758L21.2695 7.59961V3.55664C21.2695 3.12695 20.9961 2.85352 20.5664 2.85352H19.5215C19.1016 2.85352 18.8184 3.12695 18.8184 3.55664V5.53906L13.6816 1.22266C12.959 0.607422 12.0605 0.607422 11.3281 1.22266L1.15234 9.76758C0.9375 9.94336 0.839844 10.1777 0.839844 10.4023ZM15.3223 13.1562C15.3223 12.707 15.0293 12.4141 14.5801 12.4141H10.4395C9.98047 12.4141 9.6875 12.707 9.6875 13.1562V19.6992H6.19141C5.56641 19.6992 5.22461 19.3477 5.22461 18.7129V8.47852L12.1582 2.66797C12.373 2.47266 12.6367 2.47266 12.8516 2.66797L19.6973 8.41016V18.7129C19.6973 19.3477 19.3555 19.6992 18.7402 19.6992H15.3223V13.1562Z" fill="#9CA2A9"/>
</svg>
