<svg width="19" height="19" viewBox="0 0 19 19" fill="none" xmlns="http://www.w3.org/2000/svg">
<path d="M9.5 9.125C11.8242 9.125 13.7188 7.05469 13.7188 4.53516C13.7188 2.03516 11.834 0.0722656 9.5 0.0722656C7.18555 0.0722656 5.28125 2.07422 5.28125 4.55469C5.29102 7.06445 7.17578 9.125 9.5 9.125ZM9.5 7.65039C8.07422 7.65039 6.85352 6.2832 6.85352 4.55469C6.85352 2.85547 8.05469 1.54688 9.5 1.54688C10.9551 1.54688 12.1465 2.83594 12.1465 4.53516C12.1465 6.26367 10.9355 7.65039 9.5 7.65039ZM3.35742 18.1582H15.6328C17.2539 18.1582 18.0254 17.6699 18.0254 16.5957C18.0254 14.0371 14.793 10.3359 9.5 10.3359C4.19727 10.3359 0.964844 14.0371 0.964844 16.5957C0.964844 17.6699 1.73633 18.1582 3.35742 18.1582ZM2.89844 16.6836C2.64453 16.6836 2.53711 16.6152 2.53711 16.4102C2.53711 14.8086 5.01758 11.8105 9.5 11.8105C13.9727 11.8105 16.4531 14.8086 16.4531 16.4102C16.4531 16.6152 16.3555 16.6836 16.1016 16.6836H2.89844Z" fill="#9CA2A9"/>
</svg>
