<svg t="1621247182621" class="icon" viewBox="0 0 1024 1024" version="1.1" xmlns="http://www.w3.org/2000/svg" p-id="3567" width="200" height="200">
  <path d="M512 970.666667C258.133333 970.666667 53.333333 765.866667 53.333333 512S258.133333 53.333333 512 53.333333 970.666667 258.133333 970.666667 512 765.866667 970.666667 512 970.666667z m0-853.333334C294.4 117.333333 117.333333 294.4 117.333333 512S294.4 906.666667 512 906.666667 906.666667 729.6 906.666667 512 729.6 117.333333 512 117.333333z" fill="#ffffff" p-id="3568"></path>
  <path d="M629.333333 330.666667h-234.666666c-36.266667 0-64 27.733333-64 64v234.666666c0 36.266667 27.733333 64 64 64h234.666666c36.266667 0 64-27.733333 64-64v-234.666666c0-36.266667-27.733333-64-64-64z" fill="#ffffff" p-id="3569"></path>
</svg>